# xmcd CD database file
#
# Track frame offsets:
#	150
#	14395
#	32271
#	54301
#	71389
#	88339
#	104500
#	124551
#	142375
#	163924
#	185025
#	204479
#	220862
#
# Disc length: 3340 seconds
#
# Revision: 2
# Processed by: cddbd v1.4b41PL1 Copyright (c) Steve Scherf et al.
# Submitted via: Feurio! 1.60 - http://www.feurio.com
#
DISCID=be0d0a0d,c60d0a0d
DTITLE=Various Artist - Bavno
DYEAR=1900
DGENRE=
TTITLE0=Kiril Marichkov - Moiat Sviat
TTITLE1=Irina Florin - Moga
TTITLE2=Up Down - Svetat e za dvama
TTITLE3=Taxi - Ima Dni
TTITLE4=Stoian and Viktor - Salza
TTITLE5=Mery Boys Bend - Da nadbiagam pticite
TTITLE6=Big Mama Scandal - Otnovo tuk
TTITLE7=Mania - Ne iskam... ne moga
TTITLE8=Momcheshki Sviat - Biala Roza
TTITLE9=Irra - Piasachni zamaci
TTITLE10=Antibiotika feat DJ Bobo - Valsheben Sviat
TTITLE11=Grafa, Maria Popova and Roberta - Tajno
TTITLE12=B.T.R. - Nostni Vlakove
EXTD=
EXTT0=
EXTT1=
EXTT2=
EXTT3=
EXTT4=
EXTT5=
EXTT6=
EXTT7=
EXTT8=
EXTT9=
EXTT10=
EXTT11=
EXTT12=
PLAYORDER=
